<svg width="18" height="18" viewBox="0 0 18 18" fill="none" xmlns="http://www.w3.org/2000/svg">
<mask id="path-1-inside-1" fill="white">
<path d="M4.53223 7.84387C4.46258 7.77424 4.40733 7.69157 4.36963 7.60058C4.33193 7.50959 4.31252 7.41206 4.31252 7.31357C4.31251 7.21509 4.3319 7.11756 4.36958 7.02656C4.40726 6.93557 4.4625 6.85288 4.53214 6.78324C4.67277 6.64257 4.86353 6.56354 5.06244 6.56353C5.16092 6.56352 5.25845 6.58291 5.34945 6.62059C5.44044 6.65827 5.52313 6.71351 5.59277 6.78315L8.25 9.43966V0.75C8.25 0.551088 8.32902 0.360322 8.46967 0.21967C8.61032 0.0790178 8.80109 0 9 0C9.19891 0 9.38968 0.0790178 9.53033 0.21967C9.67098 0.360322 9.75 0.551088 9.75 0.75V9.43966L12.4072 6.78314C12.4769 6.71351 12.5596 6.65827 12.6506 6.62059C12.7415 6.5829 12.8391 6.56351 12.9376 6.56352C13.0361 6.56353 13.1336 6.58294 13.2246 6.62064C13.3156 6.65833 13.3982 6.71359 13.4679 6.78323C13.5375 6.85288 13.5927 6.93556 13.6304 7.02656C13.6681 7.11756 13.6875 7.21508 13.6875 7.31357C13.6875 7.41206 13.6681 7.50958 13.6304 7.60057C13.5927 7.69156 13.5374 7.77424 13.4678 7.84387L9.53027 11.7804C9.38963 11.921 9.19889 12 9 12C8.80111 12 8.61037 11.921 8.46973 11.7804L4.53223 7.84387ZM17.25 10.5C17.0511 10.5 16.8603 10.579 16.7197 10.7197C16.579 10.8603 16.5 11.0511 16.5 11.25V16.5H1.5V11.25C1.5 11.0511 1.42098 10.8603 1.28033 10.7197C1.13968 10.579 0.948912 10.5 0.75 10.5C0.551088 10.5 0.360322 10.579 0.21967 10.7197C0.0790178 10.8603 0 11.0511 0 11.25V16.5C0.000454817 16.8977 0.158636 17.279 0.439842 17.5602C0.721048 17.8414 1.10231 17.9995 1.5 18H16.5C16.8977 17.9995 17.279 17.8414 17.5602 17.5602C17.8414 17.279 17.9995 16.8977 18 16.5V11.25C18 11.0511 17.921 10.8603 17.7803 10.7197C17.6397 10.579 17.4489 10.5 17.25 10.5Z"/>
</mask>
<path d="M4.53223 7.84387C4.46258 7.77424 4.40733 7.69157 4.36963 7.60058C4.33193 7.50959 4.31252 7.41206 4.31252 7.31357C4.31251 7.21509 4.3319 7.11756 4.36958 7.02656C4.40726 6.93557 4.4625 6.85288 4.53214 6.78324C4.67277 6.64257 4.86353 6.56354 5.06244 6.56353C5.16092 6.56352 5.25845 6.58291 5.34945 6.62059C5.44044 6.65827 5.52313 6.71351 5.59277 6.78315L8.25 9.43966V0.75C8.25 0.551088 8.32902 0.360322 8.46967 0.21967C8.61032 0.0790178 8.80109 0 9 0C9.19891 0 9.38968 0.0790178 9.53033 0.21967C9.67098 0.360322 9.75 0.551088 9.75 0.75V9.43966L12.4072 6.78314C12.4769 6.71351 12.5596 6.65827 12.6506 6.62059C12.7415 6.5829 12.8391 6.56351 12.9376 6.56352C13.0361 6.56353 13.1336 6.58294 13.2246 6.62064C13.3156 6.65833 13.3982 6.71359 13.4679 6.78323C13.5375 6.85288 13.5927 6.93556 13.6304 7.02656C13.6681 7.11756 13.6875 7.21508 13.6875 7.31357C13.6875 7.41206 13.6681 7.50958 13.6304 7.60057C13.5927 7.69156 13.5374 7.77424 13.4678 7.84387L9.53027 11.7804C9.38963 11.921 9.19889 12 9 12C8.80111 12 8.61037 11.921 8.46973 11.7804L4.53223 7.84387ZM17.25 10.5C17.0511 10.5 16.8603 10.579 16.7197 10.7197C16.579 10.8603 16.5 11.0511 16.5 11.25V16.5H1.5V11.25C1.5 11.0511 1.42098 10.8603 1.28033 10.7197C1.13968 10.579 0.948912 10.5 0.75 10.5C0.551088 10.5 0.360322 10.579 0.21967 10.7197C0.0790178 10.8603 0 11.0511 0 11.25V16.5C0.000454817 16.8977 0.158636 17.279 0.439842 17.5602C0.721048 17.8414 1.10231 17.9995 1.5 18H16.5C16.8977 17.9995 17.279 17.8414 17.5602 17.5602C17.8414 17.279 17.9995 16.8977 18 16.5V11.25C18 11.0511 17.921 10.8603 17.7803 10.7197C17.6397 10.579 17.4489 10.5 17.25 10.5Z" fill="#09090A"/>
<path d="M4.53223 7.84387L3.47166 8.90463L3.4717 8.90467L4.53223 7.84387ZM4.53214 6.78324L3.47138 5.72267L4.53214 6.78324ZM5.06244 6.56353L5.06231 5.06353L5.06244 6.56353ZM5.59277 6.78315L4.5322 7.8439L4.53226 7.84395L5.59277 6.78315ZM8.25 9.43966L7.18948 10.5005L9.75 13.0603V9.43966H8.25ZM9 0V1.5V0ZM9.75 9.43966H8.25V13.0603L10.8105 10.5005L9.75 9.43966ZM12.4072 6.78314L13.4677 7.84394L13.4678 7.84389L12.4072 6.78314ZM13.4678 7.84387L14.5283 8.90467L14.5283 8.90462L13.4678 7.84387ZM9.53027 11.7804L8.46975 10.7196L8.46965 10.7197L9.53027 11.7804ZM8.46973 11.7804L9.53035 10.7197L9.53025 10.7196L8.46973 11.7804ZM16.5 11.25L15 11.2499V11.25H16.5ZM16.5 16.5V18H18V16.5H16.5ZM1.5 16.5H0V18H1.5V16.5ZM0 11.25H-1.5H0ZM0 16.5H-1.5L-1.5 16.5017L0 16.5ZM1.5 18L1.49828 19.5H1.5V18ZM16.5 18V19.5L16.5017 19.5L16.5 18ZM18 16.5L19.5 16.5017V16.5H18ZM18 11.25H19.5V11.2499L18 11.25ZM5.5928 6.78312C5.66245 6.85276 5.7177 6.93544 5.7554 7.02643L2.98386 8.17472C3.09695 8.44769 3.26271 8.69571 3.47166 8.90463L5.5928 6.78312ZM5.7554 7.02643C5.7931 7.11742 5.81251 7.21495 5.81252 7.31345L2.81252 7.3137C2.81254 7.60918 2.87076 7.90175 2.98386 8.17472L5.7554 7.02643ZM5.81252 7.31345C5.81252 7.41194 5.79313 7.50947 5.75545 7.60047L2.98371 6.45266C2.87066 6.72565 2.81249 7.01823 2.81252 7.3137L5.81252 7.31345ZM5.75545 7.60047C5.71777 7.69146 5.66253 7.77415 5.59289 7.84381L3.47138 5.72267C3.26247 5.93162 3.09676 6.17967 2.98371 6.45266L5.75545 7.60047ZM5.59289 7.84381C5.45224 7.98447 5.26148 8.06351 5.06256 8.06353L5.06231 5.06353C4.46558 5.06358 3.8933 5.30068 3.47138 5.72267L5.59289 7.84381ZM5.06256 8.06353C4.96407 8.06353 4.86654 8.04414 4.77554 8.00646L5.92335 5.23472C5.65036 5.12167 5.35778 5.0635 5.06231 5.06353L5.06256 8.06353ZM4.77554 8.00646C4.68454 7.96877 4.60185 7.91354 4.5322 7.8439L6.65334 5.72239C6.4444 5.51348 6.19635 5.34777 5.92335 5.23472L4.77554 8.00646ZM4.53226 7.84395L7.18948 10.5005L9.31052 8.37886L6.65329 5.72234L4.53226 7.84395ZM9.75 9.43966V0.75H6.75V9.43966H9.75ZM9.75 0.75C9.75 0.948913 9.67098 1.13968 9.53033 1.28033L7.40901 -0.84099C6.98705 -0.419034 6.75 0.153262 6.75 0.75H9.75ZM9.53033 1.28033C9.38968 1.42098 9.19891 1.5 9 1.5V-1.5C8.40326 -1.5 7.83097 -1.26295 7.40901 -0.84099L9.53033 1.28033ZM9 1.5C8.80109 1.5 8.61032 1.42098 8.46967 1.28033L10.591 -0.84099C10.169 -1.26295 9.59674 -1.5 9 -1.5V1.5ZM8.46967 1.28033C8.32902 1.13968 8.25 0.94891 8.25 0.75H11.25C11.25 0.153266 11.0129 -0.419031 10.591 -0.84099L8.46967 1.28033ZM8.25 0.75V9.43966H11.25V0.75H8.25ZM10.8105 10.5005L13.4677 7.84394L11.3467 5.72234L8.68948 8.37886L10.8105 10.5005ZM13.4678 7.84389C13.3981 7.91354 13.3155 7.96877 13.2245 8.00646L12.0766 5.23472C11.8037 5.34777 11.5556 5.51348 11.3467 5.72239L13.4678 7.84389ZM13.2245 8.00646C13.1335 8.04414 13.0359 8.06353 12.9374 8.06352L12.9377 5.06352C12.6422 5.0635 12.3496 5.12167 12.0766 5.23472L13.2245 8.00646ZM12.9374 8.06352C12.8389 8.06351 12.7414 8.04411 12.6504 8.00641L13.7987 5.23487C13.5257 5.12177 13.2332 5.06355 12.9377 5.06352L12.9374 8.06352ZM12.6504 8.00641C12.5594 7.96871 12.4768 7.91346 12.4071 7.8438L14.5286 5.72266C14.3197 5.51371 14.0717 5.34796 13.7987 5.23487L12.6504 8.00641ZM12.4071 7.8438C12.3375 7.77415 12.2822 7.69146 12.2446 7.60047L15.0163 6.45265C14.9032 6.17967 14.7375 5.93162 14.5286 5.72266L12.4071 7.8438ZM12.2446 7.60047C12.2069 7.50947 12.1875 7.41194 12.1875 7.31344L15.1875 7.3137C15.1875 7.01823 15.1293 6.72565 15.0163 6.45265L12.2446 7.60047ZM12.1875 7.31344C12.1875 7.21496 12.2069 7.11743 12.2446 7.02643L15.0161 8.17472C15.1292 7.90174 15.1875 7.60917 15.1875 7.3137L12.1875 7.31344ZM12.2446 7.02643C12.2823 6.93543 12.3376 6.85276 12.4072 6.78312L14.5283 8.90462C14.7373 8.69571 14.903 8.44769 15.0161 8.17472L12.2446 7.02643ZM12.4072 6.78308L8.46975 10.7196L10.5908 12.8412L14.5283 8.90467L12.4072 6.78308ZM8.46965 10.7197C8.61031 10.579 8.80108 10.5 9 10.5V13.5C9.5967 13.5 10.169 13.263 10.5909 12.8411L8.46965 10.7197ZM9 10.5C9.19892 10.5 9.38969 10.579 9.53035 10.7197L7.40911 12.8411C7.83105 13.263 8.4033 13.5 9 13.5V10.5ZM9.53025 10.7196L5.59275 6.78308L3.4717 8.90467L7.4092 12.8412L9.53025 10.7196ZM17.2499 9C16.6532 9.00003 16.081 9.23708 15.659 9.65902L17.7803 11.7803C17.6397 11.921 17.449 12 17.2501 12L17.2499 9ZM15.659 9.65902C15.2371 10.081 15 10.6532 15 11.2499L18 11.2501C18 11.449 17.921 11.6397 17.7803 11.7803L15.659 9.65902ZM15 11.25V16.5H18V11.25H15ZM16.5 15H1.5V18H16.5V15ZM3 16.5V11.25H0V16.5H3ZM3 11.25C3 10.6533 2.76295 10.081 2.34099 9.65901L0.21967 11.7803C0.0790172 11.6397 0 11.4489 0 11.25H3ZM2.34099 9.65901C1.91903 9.23705 1.34673 9 0.75 9V12C0.55109 12 0.360324 11.921 0.21967 11.7803L2.34099 9.65901ZM0.75 9C0.153266 9 -0.419031 9.23705 -0.84099 9.65901L1.28033 11.7803C1.13968 11.921 0.94891 12 0.75 12V9ZM-0.84099 9.65901C-1.26295 10.081 -1.5 10.6533 -1.5 11.25H1.5C1.5 11.4489 1.42098 11.6397 1.28033 11.7803L-0.84099 9.65901ZM-1.5 11.25V16.5H1.5V11.25H-1.5ZM-1.5 16.5017C-1.49909 17.2966 -1.18291 18.0587 -0.620818 18.6208L1.5005 16.4995C1.50018 16.4992 1.5 16.4987 1.5 16.4983L-1.5 16.5017ZM-0.620818 18.6208C-0.0587278 19.1829 0.703369 19.4991 1.49828 19.5L1.50172 16.5C1.50126 16.5 1.50082 16.4998 1.5005 16.4995L-0.620818 18.6208ZM1.5 19.5H16.5V16.5H1.5V19.5ZM16.5017 19.5C17.2966 19.4991 18.0587 19.1829 18.6208 18.6208L16.4995 16.4995C16.4992 16.4998 16.4987 16.5 16.4983 16.5L16.5017 19.5ZM18.6208 18.6208C19.1829 18.0587 19.4991 17.2966 19.5 16.5017L16.5 16.4983C16.5 16.4987 16.4998 16.4992 16.4995 16.4995L18.6208 18.6208ZM19.5 16.5V11.25H16.5V16.5H19.5ZM19.5 11.2499C19.5 10.6532 19.2629 10.081 18.841 9.65902L16.7197 11.7803C16.579 11.6397 16.5 11.449 16.5 11.2501L19.5 11.2499ZM18.841 9.65902C18.419 9.23708 17.8468 9.00003 17.2501 9L17.2499 12C17.051 12 16.8603 11.921 16.7197 11.7803L18.841 9.65902Z" fill="#BECACC" mask="url(#path-1-inside-1)"/>
</svg>
