<svg width="20" height="20" viewBox="0 0 20 20" fill="none" xmlns="http://www.w3.org/2000/svg">
<path d="M16.875 16.875V9.02642C16.875 8.93934 16.8568 8.85322 16.8216 8.77358C16.7863 8.69395 16.7349 8.62255 16.6704 8.56397L10.42 2.88154C10.3049 2.77694 10.155 2.71899 9.99955 2.71899C9.84406 2.719 9.69415 2.77696 9.57911 2.88157L3.32954 8.56397C3.26511 8.62255 3.21364 8.69395 3.17842 8.77358C3.14319 8.85321 3.125 8.93932 3.125 9.0264V16.875" stroke="#6E7980" stroke-width="1.5" stroke-linecap="round" stroke-linejoin="round"/>
<path d="M1.25 16.875H18.75" stroke="#6E7980" stroke-width="1.5" stroke-linecap="round" stroke-linejoin="round"/>
<path d="M11.8745 16.8744V12.4994C11.8745 12.3336 11.8087 12.1747 11.6915 12.0574C11.5742 11.9402 11.4153 11.8744 11.2495 11.8744H8.74951C8.58375 11.8744 8.42478 11.9402 8.30757 12.0574C8.19036 12.1747 8.12451 12.3336 8.12451 12.4994V16.8744" stroke="#6E7980" stroke-width="1.5" stroke-linecap="round" stroke-linejoin="round"/>
</svg>
