<svg width="210" height="40" viewBox="0 0 210 40" fill="none" xmlns="http://www.w3.org/2000/svg">
<path d="M15.001 16.8745C16.3817 16.8745 17.501 17.9938 17.501 19.3745C17.501 20.7552 16.3817 21.8745 15.001 21.8745C13.6203 21.8745 12.501 20.7552 12.501 19.3745C12.501 17.9938 13.6203 16.8745 15.001 16.8745Z" fill="#0080FF"/>
<path d="M29.1506 20.6422L25.0008 29.0415V34.9995C25.0008 35.6626 24.7374 36.2984 24.2686 36.7673C23.7997 37.2361 23.1638 37.4995 22.5008 37.4995H7.50079C6.83775 37.4995 6.20186 37.2361 5.73302 36.7673C5.26418 36.2984 5.00079 35.6626 5.00079 34.9995V29.0415L0.850931 20.6421C0.646875 20.2313 0.560188 19.7722 0.600426 19.3153C0.640663 18.8584 0.806262 18.4214 1.07897 18.0526L12.6225 2.37179C12.7005 2.26576 12.81 2.1871 12.9354 2.147C13.0608 2.10691 13.1957 2.10743 13.3208 2.14851C13.4459 2.18958 13.5548 2.2691 13.632 2.37573C13.7092 2.48236 13.7508 2.61066 13.7508 2.74231V14.5327C12.5725 14.837 11.5455 15.5605 10.8625 16.5678C10.1795 17.575 9.8873 18.7967 10.0406 20.004C10.194 21.2113 10.7824 22.3212 11.6955 23.1256C12.6086 23.9301 13.7838 24.374 15.0008 24.374C16.2178 24.374 17.3929 23.9301 18.3061 23.1256C19.2192 22.3212 19.8076 21.2113 19.9609 20.004C20.1143 18.7967 19.8221 17.575 19.139 16.5678C18.456 15.5605 17.4291 14.837 16.2508 14.5327V2.74233C16.2508 2.61068 16.2924 2.48239 16.3696 2.37576C16.4468 2.26913 16.5557 2.18961 16.6808 2.14853C16.8059 2.10746 16.9407 2.10693 17.0661 2.14703C17.1915 2.18712 17.3011 2.26579 17.3791 2.37181L28.9225 18.0528C29.1952 18.4216 29.3608 18.8585 29.4011 19.3154C29.4413 19.7723 29.3546 20.2314 29.1506 20.6422ZM22.5008 29.9995H7.50079V34.9995H22.5008V29.9995Z" fill="#0080FF"/>
<path d="M36.91 11.5H33V8.10001H44.56V11.5H40.65V31.9H36.91V11.5Z" fill="#001529"/>
<path d="M46.3708 8.10001H56.5708V11.5H50.1108V17.79H55.2448V21.19H50.1108V28.5H56.5708V31.9H46.3708V8.10001Z" fill="#001529"/>
<path d="M58.7223 8.10001H64.0603L66.4403 25.134H66.5083L68.8883 8.10001H74.2263V31.9H70.6903V13.88H70.6223L67.9023 31.9H64.7743L62.0543 13.88H61.9863V31.9H58.7223V8.10001Z" fill="#001529"/>
<path d="M77.0173 8.10001H82.5252C84.3839 8.10001 85.7779 8.59868 86.7072 9.59601C87.6366 10.5933 88.1012 12.0553 88.1012 13.982V16.328C88.1012 18.2547 87.6366 19.7167 86.7072 20.714C85.7779 21.7113 84.3839 22.21 82.5252 22.21H80.7573V31.9H77.0173V8.10001ZM82.5252 18.81C83.1372 18.81 83.5906 18.64 83.8853 18.3C84.2026 17.96 84.3613 17.382 84.3613 16.566V13.744C84.3613 12.928 84.2026 12.35 83.8853 12.01C83.5906 11.67 83.1372 11.5 82.5252 11.5H80.7573V18.81H82.5252Z" fill="#001529"/>
<path d="M90.1325 8.10001H93.8725V28.5H100.026V31.9H90.1325V8.10001Z" fill="#001529"/>
<path d="M104.843 8.10001H109.909L113.785 31.9H110.045L109.365 27.174V27.242H105.115L104.435 31.9H100.967L104.843 8.10001ZM108.923 24.012L107.257 12.248H107.189L105.557 24.012H108.923Z" fill="#001529"/>
<path d="M116.963 11.5H113.053V8.10001H124.613V11.5H120.703V31.9H116.963V11.5Z" fill="#001529"/>
<path d="M126.424 8.10001H136.623V11.5H130.163V17.79H135.298V21.19H130.163V28.5H136.623V31.9H126.424V8.10001Z" fill="#001529"/>
<path d="M144.045 32.24C142.254 32.24 140.883 31.73 139.931 30.71C139.002 29.69 138.537 28.2507 138.537 26.392V13.608C138.537 11.7493 139.002 10.31 139.931 9.29001C140.883 8.27001 142.254 7.76001 144.045 7.76001C145.836 7.76001 147.196 8.27001 148.125 9.29001C149.077 10.31 149.553 11.7493 149.553 13.608V16.124H146.017V13.37C146.017 11.8967 145.394 11.16 144.147 11.16C142.9 11.16 142.277 11.8967 142.277 13.37V26.664C142.277 28.1147 142.9 28.84 144.147 28.84C145.394 28.84 146.017 28.1147 146.017 26.664V23.026H149.553V26.392C149.553 28.2507 149.077 29.69 148.125 30.71C147.196 31.73 145.836 32.24 144.045 32.24Z" fill="#001529"/>
<path d="M157.263 32.24C155.427 32.24 154.022 31.7187 153.047 30.676C152.072 29.6333 151.585 28.16 151.585 26.256V13.744C151.585 11.84 152.072 10.3667 153.047 9.32401C154.022 8.28134 155.427 7.76001 157.263 7.76001C159.099 7.76001 160.504 8.28134 161.479 9.32401C162.454 10.3667 162.941 11.84 162.941 13.744V26.256C162.941 28.16 162.454 29.6333 161.479 30.676C160.504 31.7187 159.099 32.24 157.263 32.24ZM157.263 28.84C158.555 28.84 159.201 28.058 159.201 26.494V13.506C159.201 11.942 158.555 11.16 157.263 11.16C155.971 11.16 155.325 11.942 155.325 13.506V26.494C155.325 28.058 155.971 28.84 157.263 28.84Z" fill="#001529"/>
<path d="M170.876 32.24C169.04 32.24 167.635 31.7187 166.66 30.676C165.686 29.6333 165.198 28.16 165.198 26.256V13.744C165.198 11.84 165.686 10.3667 166.66 9.32401C167.635 8.28134 169.04 7.76001 170.876 7.76001C172.712 7.76001 174.118 8.28134 175.092 9.32401C176.067 10.3667 176.554 11.84 176.554 13.744V26.256C176.554 28.16 176.067 29.6333 175.092 30.676C174.118 31.7187 172.712 32.24 170.876 32.24ZM170.876 28.84C172.168 28.84 172.814 28.058 172.814 26.494V13.506C172.814 11.942 172.168 11.16 170.876 11.16C169.584 11.16 168.938 11.942 168.938 13.506V26.494C168.938 28.058 169.584 28.84 170.876 28.84Z" fill="#001529"/>
<path d="M179.084 8.10001H182.824V18.13L187.584 8.10001H191.324L186.87 16.838L191.392 31.9H187.482L184.32 21.292L182.824 24.318V31.9H179.084V8.10001Z" fill="#001529"/>
<path d="M193.162 8.10001H196.902V31.9H193.162V8.10001Z" fill="#001529"/>
<path d="M199.703 8.10001H209.903V11.5H203.443V17.79H208.577V21.19H203.443V28.5H209.903V31.9H199.703V8.10001Z" fill="#001529"/>
</svg>
