<svg width="519" height="368" viewBox="0 0 519 368" fill="none" xmlns="http://www.w3.org/2000/svg">
<ellipse cx="154.527" cy="149.581" rx="8.25228" ry="8.05648" transform="rotate(-43.3865 154.527 149.581)" fill="#E0ECFF"/>
<ellipse cx="176.668" cy="147.12" rx="8.17526" ry="7.98607" transform="rotate(-43.35 176.668 147.12)" fill="#E0ECFF"/>
<path d="M344.176 365.976C350.345 365.976 356.344 365.7 362.172 365.15C401.524 361.521 432.637 346.008 453.327 324.348C464.272 313.06 472.549 299.463 477.549 284.555C482.259 270.443 483.632 255.431 481.562 240.698C467.264 139.144 347.18 188.528 397.522 126.76C447.863 64.9931 349.313 -13.5662 311.498 5.02588C273.683 23.618 315.385 63.3821 221.937 44.5836C128.489 25.7851 147.827 108.38 147.827 108.38" stroke="#E0ECFF" stroke-width="2.8197"/>
<path d="M92.5835 278.329C92.5835 278.329 49.7867 247.641 33.2642 281.58C33.2642 281.58 50.6409 219.996 109.909 197.97C109.909 197.97 126.85 188.545 127.595 194.238C128.34 199.931 133.253 202.837 135.403 202.768C137.553 202.7 155.704 203.835 156.334 201.123C156.965 198.411 155.761 190.288 164.762 190.23C173.763 190.173 222.602 202.172 236.568 214.854C236.568 214.854 212.26 244.201 225.257 276.558L214.307 273.904C214.307 273.904 221.06 332.38 211.853 366.394H52.8194C52.8194 366.394 68.717 368.395 85.0217 356.763L108.699 326.378C108.699 326.378 119.081 310.646 140.294 308.399C140.294 308.399 152.367 307.08 152.253 301.342C152.138 295.603 156.604 305.017 162.572 296.721C163.3 296.721 177.805 297.558 177.805 297.558C177.805 297.558 188.697 298.578 190.744 288.855C192.791 279.132 200.335 210.886 197.624 206.787C194.912 202.688 193.874 202.637 170.988 202.774C148.102 202.912 127.991 198.348 125.078 209.734C122.166 221.12 118.801 264.261 118.801 264.261C118.801 264.261 105.901 267.637 96.0749 281.609C96.1093 281.603 92.5835 288.414 92.5835 278.329Z" fill="#0080FF"/>
<path d="M92.584 257.604V284.469" stroke="#004D99" stroke-width="2.8197"/>
<path d="M213.573 271.037C238.827 284.452 308.621 311.862 311.097 206.437C311.097 206.437 308.093 178.753 315.924 175.141C323.756 171.529 336.386 160.092 320.121 132.402L330.733 121.813C332.664 119.825 333.389 116.958 332.633 114.291C331.877 111.625 329.756 109.564 327.069 108.885C324.382 108.206 321.537 109.012 319.605 111L298.513 133.359C298.513 133.359 295.458 127.626 290.04 130.613C284.622 133.6 264.752 146.275 273.775 172.745L250.305 240.165" stroke="#004D99" stroke-width="2.8197"/>
<path d="M298.485 133.347C298.485 133.347 304.109 141.907 292.138 150.655" stroke="#004D99" stroke-width="2.8197"/>
<path d="M323.584 139.052C323.584 139.052 327.087 150.053 312.955 157.151C307.956 159.662 302.469 154.376 304.831 149.302C304.871 149.228 304.906 149.148 304.946 149.067" stroke="#004D99" stroke-width="2.8197"/>
<path d="M327.86 152.639C327.86 152.639 324.77 163.383 316.314 163.899C308.833 164.351 310.088 156.721 310.088 156.721" stroke="#004D99" stroke-width="2.8197"/>
<path d="M183.194 145.909C182.62 146.058 182.259 145.582 181.726 145.674C174.061 144.275 168.363 138.221 167.72 135.308C167.938 136.896 170.851 136.736 170.358 138.358C170.266 138.668 170.082 138.547 169.933 138.846C169.693 139.419 169.698 138.633 169.36 139.149C167.48 136.369 166.39 134.987 166.058 133.457C166.284 135.099 166.151 136.772 165.668 138.358C165.579 138.668 165.462 138.97 165.318 139.258C164.172 141.964 161.781 144.252 157.785 144.819C156.783 144.946 155.772 144.979 154.764 144.917C151.897 144.751 149.421 144.584 147.311 144.493C140.259 144.177 137.731 144.71 138.522 149.262C138.958 151.321 139.576 153.338 140.368 155.288C141.767 158.968 142.742 165.343 141.308 172.286V172.326C139.646 180.41 134.383 186.659 123.106 192.529C121.108 193.561 119.048 194.466 116.937 195.241C97.3708 202.499 50.5666 220.885 31.1661 288.305C29.1022 295.488 27.56 302.024 26.4708 307.992L25.9376 307.682C12.6886 299.742 4.04899 281.93 6.67471 266.605C7.98183 258.998 12.9351 253.689 19.2873 249.693C23.7476 246.93 28.5174 244.665 32.5133 241.254C45.7566 229.943 35.1677 212.354 42.5002 198.83C50.7672 183.615 63.7123 174.235 80.6132 173.461C84.8671 173.645 89.6541 174.144 94.2979 173.92C101.04 174.161 107.931 173.61 112.867 169.19C116.754 165.751 117.562 160.144 119.036 155.466C120.695 150.19 122.078 144.832 123.181 139.413C124.189 134.275 126.07 129.348 128.742 124.846C131.626 119.966 135.694 115.893 140.569 113.001C144.822 110.601 149.563 109.195 154.437 108.891C158.875 109.152 163.193 110.44 167.05 112.651C168.367 113.43 169.612 114.324 170.77 115.323C179.307 122.604 183.394 134.93 183.194 145.909Z" fill="#A3C8FF"/>
<path d="M312.714 163.257C312.714 163.257 309.979 166.651 311.475 169.872C312.972 173.094 316.687 173.845 320.299 172.435" stroke="#004D99" stroke-width="2.8197"/>
<path d="M320.109 132.402L312.553 139.952" stroke="#004D99" stroke-width="2.8197"/>
<path d="M118.83 263.521L124.981 210.491C125.496 206.049 129.258 202.699 133.73 202.7H190.223C192.723 202.698 195.105 203.76 196.776 205.619C198.447 207.478 199.25 209.96 198.983 212.446L190.75 288.861C190.267 293.335 186.49 296.726 181.99 296.727H161.775" stroke="#004D99" stroke-width="2.8197"/>
<circle cx="185.602" cy="213.902" r="2.30467" fill="#004D99"/>
<path d="M147.557 275.824C153.52 277.165 154.712 277.188 160.497 278.048C164.143 278.593 172.479 279.046 172.628 273.387C172.765 268.417 167.187 265.499 163.249 263.911C158.703 262.182 153.946 261.069 149.105 260.603C147.11 260.373 145.106 260.217 143.091 260.133C129.132 259.559 113.028 262.936 103.413 273.857C81.1406 299.128 51.5239 315.376 51.5239 315.376" stroke="#004D99" stroke-width="2.8197"/>
<path d="M163.524 278.329C166.39 279.545 171.246 282.136 169.257 287.101C168.351 289.394 166.706 290.208 164.447 290.541C159.568 291.246 154.334 290.208 149.541 289.205C147.77 288.832 144.628 288.15 142.879 287.668" stroke="#004D99" stroke-width="2.8197"/>
<path d="M158.427 290.655C158.427 290.655 163.638 290.592 162.383 295.437C160.313 303.463 144.232 299.828 136.71 298.143" stroke="#004D99" stroke-width="2.8197"/>
<path d="M158.749 190.666C183.251 191.738 220.59 198.922 254.45 228.211" stroke="#004D99" stroke-width="2.8197"/>
<path d="M344.177 365.981L52.8198 366.417" stroke="#004D99" stroke-width="2.8197"/>
<path d="M213.573 260.075C213.573 260.075 219.306 313.432 213.573 365.981" stroke="#004D99" stroke-width="2.8197"/>
<path opacity="0.54" d="M466.582 235.705L516.969 106.592C518.235 101.53 517.098 96.1669 513.887 92.0537C510.677 87.9406 505.751 85.5357 500.533 85.5344H300.365C291.114 85.5331 283.068 91.8746 280.907 100.87L225.733 229.954C224.519 235.002 225.686 240.328 228.9 244.405C232.113 248.483 237.018 250.862 242.21 250.863H447.164C456.348 250.863 464.354 244.614 466.582 235.705Z" fill="white"/>
<path d="M466.582 235.705L516.969 106.592C518.235 101.53 517.098 96.1669 513.887 92.0537C510.677 87.9406 505.751 85.5357 500.533 85.5344H300.365C291.114 85.5331 283.068 91.8746 280.907 100.87L225.733 229.954C224.519 235.002 225.686 240.328 228.9 244.405C232.113 248.483 237.018 250.862 242.21 250.863H447.164C456.348 250.863 464.354 244.614 466.582 235.705Z" fill="#A3C8FF"/>
<path fill-rule="evenodd" clip-rule="evenodd" d="M466.582 235.705L516.969 106.592C518.235 101.53 517.098 96.1669 513.887 92.0537C510.677 87.9406 505.751 85.5357 500.533 85.5344H300.365C291.114 85.5331 283.068 91.8746 280.907 100.87L225.733 229.954C224.519 235.002 225.686 240.328 228.9 244.405C232.113 248.483 237.018 250.862 242.21 250.863H447.164C456.348 250.863 464.354 244.614 466.582 235.705V235.705Z" stroke="#004D99" stroke-width="2.8197" stroke-linecap="square" stroke-linejoin="round"/>
<path d="M459.209 230.476L505.698 111.362C506.865 106.693 505.816 101.747 502.856 97.9537C499.895 94.1601 495.352 91.9412 490.54 91.9382H305.863C297.328 91.936 289.904 97.7874 287.913 106.087L237.01 225.173C235.891 229.83 236.969 234.743 239.934 238.504C242.899 242.265 247.424 244.46 252.214 244.459H441.299C449.769 244.455 457.151 238.692 459.209 230.476Z" fill="#A3C8FF"/>
<path d="M319.186 113.838C321.634 110.163 325.642 108.529 328.135 110.186C330.629 111.843 330.664 116.171 328.216 119.846C327.836 120.411 327.406 120.941 326.932 121.429L345.076 159.737C347.943 157.805 351.153 157.329 353.435 158.848C354.909 159.828 355.728 161.497 355.986 163.434L368.381 159.249L379.222 155.626C380.369 155.23 381.578 154.852 382.759 154.479C383.205 153.149 383.824 151.882 384.6 150.713C388.04 145.553 393.664 143.26 397.161 145.553C400.658 147.846 400.704 153.849 397.361 158.98L418 187.203C422.501 183.511 427.804 182.37 431.479 184.813C436.478 188.138 436.552 196.818 431.645 204.196C431.45 204.488 431.226 204.729 431.02 205.01L444.779 223.809C444.819 223.866 444.871 223.935 444.905 223.992C445.851 225.42 445.964 227.244 445.201 228.777C444.438 230.31 442.915 231.32 441.205 231.426C439.496 231.531 437.86 230.717 436.913 229.289L424.696 210.858C420.832 213.099 416.728 213.529 413.718 211.523C408.936 208.347 408.707 200.298 412.967 193.177L393.182 163.325C390.264 165.309 387.042 165.814 384.732 164.283C383.441 163.372 382.562 161.99 382.284 160.436C381.791 160.568 381.303 160.711 380.81 160.849L369.786 163.859L355.677 167.66C355.245 169.351 354.532 170.957 353.567 172.412C350.127 177.572 344.509 179.865 341.006 177.543C337.503 175.221 337.452 169.139 340.886 163.973C341.398 163.224 341.973 162.52 342.606 161.869L325.332 122.81C323.251 124.226 320.952 124.593 319.307 123.498C316.778 121.847 316.738 117.519 319.186 113.838Z" fill="white"/>
<path d="M450.587 115.954H477.354C479.857 115.953 482.122 114.473 483.127 112.181C483.285 111.837 483.369 111.464 483.374 111.086C483.361 109.565 482.126 108.338 480.605 108.334H452.129C453.488 110.599 452.811 113.729 450.587 115.954Z" fill="#E0ECFF"/>
<path d="M433.279 113.208C433.282 114.725 434.513 115.954 436.031 115.954H450.587C452.811 113.729 453.488 110.599 452.152 108.334H439.298C436.799 108.333 434.534 109.808 433.525 112.095C433.37 112.446 433.286 112.824 433.279 113.208H433.279Z" fill="#A3C8FF"/>
<path d="M439.975 115.954C440.051 116.101 440.139 116.241 440.239 116.372C442.148 118.981 446.287 119.239 449.509 116.877C449.89 116.596 450.251 116.287 450.587 115.954C452.811 113.729 453.488 110.599 452.152 108.335C452.077 108.19 451.988 108.051 451.888 107.922C449.996 105.296 445.857 105.055 442.635 107.4C442.249 107.686 441.883 107.998 441.54 108.335C439.333 110.565 438.657 113.678 439.975 115.954Z" fill="white"/>
<path d="M426.548 130.005C426.561 131.526 427.797 132.751 429.317 132.751H457.409C456.05 130.458 456.727 127.362 458.957 125.138H432.585C430.083 125.139 427.818 126.619 426.812 128.91C426.652 129.254 426.562 129.626 426.548 130.005Z" fill="#A3C8FF"/>
<path d="M457.403 132.751H470.589C473.088 132.754 475.352 131.281 476.362 128.996C476.521 128.647 476.605 128.268 476.609 127.884C476.61 127.155 476.322 126.456 475.806 125.941C475.291 125.425 474.592 125.136 473.863 125.138H458.951C456.715 127.362 456.045 130.475 457.403 132.751Z" fill="#E0ECFF"/>
<path d="M457.403 132.751C457.463 132.902 457.544 133.043 457.644 133.17C459.542 135.796 463.681 136.036 466.897 133.692C467.287 133.409 467.654 133.094 467.992 132.751C470.199 130.527 470.859 127.414 469.557 125.138C469.484 124.991 469.398 124.851 469.299 124.719C467.385 122.111 463.245 121.853 460.029 124.215C459.646 124.493 459.285 124.802 458.951 125.138C456.715 127.362 456.045 130.475 457.403 132.751Z" fill="white"/>
<path d="M448.047 149.434H464.862C467.361 149.436 469.626 147.96 470.635 145.673C470.793 145.33 470.877 144.957 470.881 144.578C470.875 143.053 469.638 141.818 468.112 141.815H449.612C450.931 144.091 450.254 147.204 448.047 149.434H448.047Z" fill="#A3C8FF"/>
<path d="M420.792 146.7C420.799 148.214 422.03 149.438 423.544 149.434H448.047C450.254 147.204 450.914 144.091 449.612 141.815H426.812C424.31 141.816 422.044 143.296 421.039 145.587C420.882 145.938 420.798 146.316 420.792 146.7Z" fill="#E0ECFF"/>
<path d="M437.435 149.434C437.511 149.58 437.599 149.718 437.699 149.847C439.591 152.473 443.73 152.714 446.952 150.369C447.339 150.083 447.704 149.771 448.047 149.434C450.254 147.204 450.914 144.091 449.612 141.815C449.537 141.668 449.449 141.528 449.349 141.397C447.44 138.788 443.3 138.565 440.078 140.892C439.697 141.173 439.337 141.482 439.001 141.815C436.776 144.04 436.077 147.17 437.435 149.434Z" fill="white"/>
<path d="M339.338 228.12H356.153C358.652 228.121 360.917 226.646 361.926 224.359C362.316 223.508 362.242 222.517 361.73 221.733C361.218 220.95 360.339 220.484 359.403 220.501H340.909C342.222 222.777 341.545 225.89 339.338 228.12H339.338Z" fill="#A3C8FF"/>
<path d="M272.583 225.385C272.585 226.112 272.875 226.808 273.39 227.321C273.905 227.834 274.602 228.121 275.329 228.12H339.338C341.545 225.89 342.205 222.777 340.903 220.501H278.603C276.1 220.501 273.835 221.982 272.83 224.273C272.672 224.623 272.588 225.002 272.583 225.385Z" fill="#E0ECFF"/>
<path d="M328.726 228.12C328.802 228.265 328.89 228.403 328.99 228.533C330.882 231.164 335.021 231.399 338.243 229.054C338.629 228.769 338.995 228.456 339.338 228.12C341.545 225.89 342.204 222.777 340.903 220.501C340.828 220.354 340.739 220.214 340.639 220.082C338.724 217.474 334.585 217.25 331.369 219.578C330.988 219.859 330.628 220.167 330.291 220.501C328.067 222.725 327.39 225.855 328.726 228.12Z" fill="white"/>
<path d="M27.4282 310.698C25.2932 309.856 23.2286 308.846 21.2537 307.677C7.9933 299.737 -0.646326 281.93 1.98512 266.6C3.29798 258.992 8.25129 253.689 14.6264 249.687C19.0809 246.924 23.8737 244.665 27.8524 241.254C41.0956 229.943 30.5011 212.348 37.8336 198.83C46.7484 182.434 61.0809 172.819 79.9654 173.444C89.0293 173.742 100.799 175.823 108.2 169.19C112.087 165.751 112.901 160.144 114.375 155.466C116.036 150.19 117.421 144.832 118.526 139.413C119.518 134.276 121.388 129.348 124.052 124.846C126.936 119.961 131.003 115.882 135.879 112.984C145.052 107.693 157.842 107.205 167.061 112.646C168.374 113.426 169.617 114.318 170.776 115.312C179.307 122.627 183.389 134.947 183.194 145.932" stroke="#004D99" stroke-width="2.8197"/>
<path d="M165.869 132.488C166.345 135.721 168.311 138.702 171.802 139.597C175.747 140.6 177.839 144.441 178.951 148.299C180.532 153.96 180.127 159.991 177.805 165.389C175.649 170.469 171.808 176.282 165.313 177.194C153.428 178.914 147.512 173.88 147.512 173.88" stroke="#004D99" stroke-width="2.8197"/>
<circle cx="155.968" cy="147.72" r="2.04095" fill="#004D99"/>
<circle cx="173.918" cy="146.367" r="2.04095" fill="#004D99"/>
<path d="M151.232 300.419C154.202 302.242 151.806 305.246 149.65 306.261C145.947 307.981 141.159 308.285 137.123 308.766C106.435 312.378 96.1898 354.504 76.9269 362.335C57.664 370.167 5.96958 375.888 31.1833 288.299C50.5952 220.891 97.3995 202.505 116.966 195.247C119.072 194.473 121.129 193.569 123.123 192.541C134.4 186.682 139.68 180.41 141.337 172.321C141.337 172.321 141.337 172.321 141.337 172.286C142.77 165.344 141.807 158.969 140.403 155.282C139.597 153.335 138.972 151.318 138.534 149.257C137.49 143.392 142.019 144.218 154.735 144.917C160.571 145.261 163.874 142.624 165.295 139.264C165.435 138.973 165.548 138.67 165.634 138.358C166.232 136.456 166.303 134.427 165.84 132.488" stroke="#004D99" stroke-width="2.8197"/>
<path d="M164.762 148.213C164.762 148.213 166.906 156.05 166.689 157.208C166.471 158.367 163.725 157.472 163.725 157.472" stroke="#004D99" stroke-width="2.8197"/>
<path d="M163.283 164.65C159.173 166.863 154.42 165.47 152.562 161.784" stroke="#004D99" stroke-width="2.8197"/>
<ellipse cx="152.858" cy="149.294" rx="9.53398" ry="9.30466" transform="rotate(-43.35 152.858 149.294)" stroke="#004D99" stroke-width="2.8197"/>
<ellipse cx="176.668" cy="147.121" rx="9.53398" ry="9.30466" transform="rotate(-43.35 176.668 147.121)" stroke="#004D99" stroke-width="2.8197"/>
<path fill-rule="evenodd" clip-rule="evenodd" d="M176.131 139.264C176.377 139.23 176.624 139.23 176.864 139.23V139.178C180.951 139.162 184.338 142.344 184.575 146.425C184.839 150.81 181.577 154.615 177.203 155.024C176.956 155.058 176.71 155.058 176.469 155.058C172.399 155.076 169.019 151.924 168.752 147.864C168.498 143.479 171.758 139.679 176.131 139.264ZM183.199 146.493C182.99 143.155 180.21 140.561 176.865 140.583V140.611H176.257C172.615 140.954 169.904 144.127 170.134 147.778C170.373 151.094 173.145 153.655 176.469 153.631H177.077C180.706 153.288 183.413 150.133 183.199 146.493Z" fill="white"/>
<path d="M162.263 148.442L167.262 147.984" stroke="#004D99" stroke-width="2.8197"/>
<path fill-rule="evenodd" clip-rule="evenodd" d="M152.304 141.196C152.557 141.173 152.809 141.162 153.061 141.162V141.213C157.23 141.195 160.691 144.426 160.961 148.586C161.235 153.084 157.891 156.987 153.405 157.409C153.153 157.443 152.901 157.443 152.654 157.443C148.485 157.461 145.021 154.231 144.748 150.071C144.443 145.553 147.795 141.615 152.304 141.196ZM159.586 148.655C159.378 145.213 156.509 142.538 153.061 142.572V142.543C152.851 142.541 152.64 142.551 152.431 142.572C148.692 142.924 145.904 146.173 146.124 149.922C146.335 153.365 149.205 156.041 152.654 156.01H153.279C157.02 155.658 159.809 152.405 159.586 148.655Z" fill="white"/>
<path d="M132.646 202.769C130.124 200.137 127.934 196.267 126.495 190.666" stroke="#004D99" stroke-width="2.8197"/>
<path d="M155.968 202.7L158.748 190.666L161.77 177.698" stroke="#004D99" stroke-width="2.8197"/>
<ellipse cx="158.941" cy="248.904" rx="9.68877" ry="8.5651" transform="rotate(-78.48 158.941 248.904)" fill="#E0ECFF"/>
<path fill-rule="evenodd" clip-rule="evenodd" d="M344.675 335.923L339.974 362.192C339.702 363.714 338.378 364.822 336.832 364.823H312.243C310.68 364.825 309.346 363.694 309.09 362.152L304.791 335.923L344.675 335.923Z" stroke="#E0ECFF" stroke-width="2.8197"/>
<path fill-rule="evenodd" clip-rule="evenodd" d="M349.147 332.988C349.01 334.644 347.627 335.92 345.965 335.923H303.541C301.902 335.923 300.529 334.686 300.359 333.057C300.273 332.16 300.57 331.27 301.176 330.604C301.781 329.938 302.64 329.559 303.541 329.56H345.965C346.852 329.56 347.699 329.93 348.303 330.581C348.906 331.231 349.212 332.103 349.147 332.988Z" stroke="#E0ECFF" stroke-width="2.8197"/>
<path d="M326.089 329.514C326.089 328.166 329.528 311.386 326.662 296.509C325.103 288.345 321.663 280.76 314.737 276.604" stroke="#E0ECFF" stroke-width="2.8197"/>
<path d="M326.673 296.532C326.673 296.532 327.459 285.226 337.228 284.447" stroke="#E0ECFF" stroke-width="2.8197"/>
<path d="M327.722 313.782C330.502 311.835 333.849 310.867 337.239 311.03" stroke="#E0ECFF" stroke-width="2.8197"/>
<path d="M327.722 305.75C327.722 305.75 320.625 297.346 309.285 303.996" stroke="#E0ECFF" stroke-width="2.8197"/>
<path fill-rule="evenodd" clip-rule="evenodd" d="M322.717 302.368C322.717 302.368 306.734 287.772 303.604 307.528C303.604 307.528 308.104 310.457 314.748 307.528C321.393 304.598 322.717 302.368 322.717 302.368Z" stroke="#E0ECFF" stroke-width="2.8197"/>
<path fill-rule="evenodd" clip-rule="evenodd" d="M330.188 287.886C330.188 287.886 329.614 281.316 337.228 279.166C344.841 277.017 349.158 286.012 349.158 286.012C349.158 286.012 343.282 292.507 330.188 287.886V287.886Z" stroke="#E0ECFF" stroke-width="2.8197"/>
<path d="M331.953 311.025C331.953 311.025 331.69 304.38 340.553 305.75C349.416 307.121 350.872 314.682 350.872 314.682C350.872 314.682 336.356 320.003 331.953 311.724" stroke="#E0ECFF" stroke-width="2.8197"/>
<path fill-rule="evenodd" clip-rule="evenodd" d="M321.273 282.772C321.273 283.243 314.611 282.199 314.187 282.05C310.959 281.087 308.666 278.851 307.158 275.893C306.694 274.976 304.005 269.833 304.768 268.939C304.791 268.939 320.625 263.836 321.273 282.772Z" stroke="#E0ECFF" stroke-width="2.8197"/>
<path fill-rule="evenodd" clip-rule="evenodd" d="M477.56 284.555C472.561 299.465 464.284 313.064 453.338 324.354C432.636 346.013 401.523 361.527 362.184 365.156V284.555H477.56Z" stroke="#E0ECFF" stroke-width="2.8197"/>
<path fill-rule="evenodd" clip-rule="evenodd" d="M453.338 324.354C432.636 346.013 401.523 361.527 362.184 365.156V324.354H453.338Z" stroke="#E0ECFF" stroke-width="2.8197"/>
<rect x="429.718" y="299.427" width="11.6437" height="11.6437" rx="5.82186" stroke="#E0ECFF" stroke-width="2.8197"/>
</svg>
